HIERARCHY
ROOT Hips
{
	OFFSET 0.000000 0.000000 0.000000
	CHANNELS 6 Xposition Yposition Zposition Yrotation Xrotation Zrotation
	JOINT Chest
	{
		OFFSET 0.000000 -0.009281 11.569106
		CHANNELS 3 Yrotation Xrotation Zrotation
		JOINT Chest2
		{
			OFFSET -0.000000 0.016865 9.269641
			CHANNELS 3 Yrotation Xrotation Zrotation
			JOINT Chest3
			{
				OFFSET -0.000000 0.000001 8.374491
				CHANNELS 3 Yrotation Xrotation Zrotation
				JOINT Chest4
				{
					OFFSET -0.000000 0.000001 8.374493
					CHANNELS 3 Yrotation Xrotation Zrotation
					JOINT Neck
					{
						OFFSET -0.000000 0.000002 12.152554
						CHANNELS 3 Yrotation Xrotation Zrotation
						JOINT Head
						{
							OFFSET -0.000000 0.040101 7.802319
							CHANNELS 3 Yrotation Xrotation Zrotation
							End Site
							{
								OFFSET -0.000000 0.020947 14.853096
							}
						}
					}
					JOINT RightCollar
					{
						OFFSET 2.894404 0.000001 6.791374
						CHANNELS 3 Yrotation Xrotation Zrotation
						JOINT RightShoulder
						{
							OFFSET 13.574684 0.000001 0.000000
							CHANNELS 3 Yrotation Xrotation Zrotation
							JOINT RightElbow
							{
								OFFSET 23.923903 0.000002 0.000000
								CHANNELS 3 Yrotation Xrotation Zrotation
								JOINT RightWrist
								{
									OFFSET 19.846718 0.012767 0.000000
									CHANNELS 3 Yrotation Xrotation Zrotation
									End Site
									{
										OFFSET 14.973145 0.000001 0.000000
									}
								}
							}
						}
					}
					JOINT LeftCollar
					{
						OFFSET -2.894404 0.000001 6.791374
						CHANNELS 3 Yrotation Xrotation Zrotation
						JOINT LeftShoulder
						{
							OFFSET -13.574684 -0.000001 0.000000
							CHANNELS 3 Yrotation Xrotation Zrotation
							JOINT LeftElbow
							{
								OFFSET -23.923903 -0.000002 0.000000
								CHANNELS 3 Yrotation Xrotation Zrotation
								JOINT LeftWrist
								{
									OFFSET -19.846718 0.012763 0.000000
									CHANNELS 3 Yrotation Xrotation Zrotation
									End Site
									{
										OFFSET -14.973145 -0.000001 0.000000
									}
								}
							}
						}
					}
				}
			}
		}
	}
	JOINT RightHip
	{
		OFFSET 9.469263 0.004643 0.045487
		CHANNELS 3 Yrotation Xrotation Zrotation
		JOINT RightKnee
		{
			OFFSET 0.000000 0.002661 -40.478676
			CHANNELS 3 Yrotation Xrotation Zrotation
			JOINT RightAnkle
			{
				OFFSET 0.000000 0.049106 -35.224068
				CHANNELS 3 Yrotation Xrotation Zrotation
				JOINT RightToe
				{
					OFFSET -0.000001 12.539529 -6.151390
					CHANNELS 3 Yrotation Xrotation Zrotation
					End Site
					{
						OFFSET -0.000001 5.044994 -1.291870
					}
				}
			}
		}
	}
	JOINT LeftHip
	{
		OFFSET -9.469263 0.004641 0.045487
		CHANNELS 3 Yrotation Xrotation Zrotation
		JOINT LeftKnee
		{
			OFFSET 0.000000 0.002661 -40.478676
			CHANNELS 3 Yrotation Xrotation Zrotation
			JOINT LeftAnkle
			{
				OFFSET 0.000000 0.049106 -35.224068
				CHANNELS 3 Yrotation Xrotation Zrotation
				JOINT LeftToe
				{
					OFFSET -0.000001 12.539529 -6.151390
					CHANNELS 3 Yrotation Xrotation Zrotation
					End Site
					{
						OFFSET -0.000001 5.044994 -1.291870
					}
				}
			}
		}
	}
}
MOTION
Frames: 11
Frame Time: 0.016667
9.556565 7.452232 83.192184 -3.159230 -0.945178 -105.892992 -0.645448 -3.096219 1.647676 -0.281956 -1.376581 0.690830 -0.281956 -1.376581 0.690830 -0.209900 -1.032756 0.517462 0.541730 -20.929412 0.339748 1.083705 -2.688051 0.776305 5.252364 24.525705 -0.035691 5.046188 12.135405 24.927696 -27.703932 -39.514113 55.422132 25.897760 -19.480905 -18.454307 -1.446041 14.780692 -1.617055 -12.836039 13.450231 -28.350315 9.783458 -39.942687 -29.458319 -10.017143 -57.586117 21.452125 -0.641578 -3.747859 -1.461927 1.434616 -3.010199 -10.556803 -0.643919 2.714794 1.624567 -0.115115 -0.046986 -0.006378 -0.916544 -5.065662 2.021388 0.660790 -0.285341 -0.150656 -1.299984 1.928267 -0.366695 -0.062185 -0.086067 0.015636 
9.471794 7.458323 83.188835 -3.159046 -0.941334 -105.926590 -0.682863 -3.195565 1.624717 -0.298107 -1.420085 0.680008 -0.298107 -1.420085 0.680007 -0.221988 -1.065398 0.509285 0.585724 -20.878929 0.378683 1.175527 -2.595319 0.860489 5.090850 24.221283 0.137489 5.684225 11.553852 25.103310 -28.657452 -41.878205 55.539465 26.171444 -19.634564 -18.887438 -1.780786 15.406692 -2.521026 -12.611375 11.515431 -27.758854 8.841151 -40.556806 -26.963647 -17.292852 -56.191649 28.050824 -0.634595 -3.681463 -1.444349 1.431330 -3.007531 -10.575834 -0.640444 2.671869 1.651684 -0.112929 -0.057397 -0.007015 -0.906768 -5.020803 2.052832 0.649561 -0.260456 -0.167231 -1.281571 1.883472 -0.353639 -0.065603 -0.097168 0.015603 
9.390326 7.463815 83.185127 -3.130460 -0.933805 -105.969524 -0.693586 -3.284741 1.619240 -0.301787 -1.459197 0.677345 -0.301787 -1.459197 0.677348 -0.224711 -1.094735 0.507262 0.588338 -20.825790 0.402195 1.187733 -2.496974 0.904550 4.853784 24.307547 0.191440 6.276155 10.293337 25.255982 -29.910488 -44.093396 55.687441 26.380836 -19.890633 -19.255169 -2.305265 15.653825 -3.879957 -11.959980 9.364526 -26.599909 7.767880 -40.379160 -24.419004 -21.809752 -54.591851 32.034680 -0.621639 -3.592410 -1.399681 1.426903 -2.995558 -10.611542 -0.632891 2.623812 1.653864 -0.114999 -0.065057 -0.008466 -0.892965 -4.954403 2.092813 0.636856 -0.228750 -0.186394 -1.258966 1.838580 -0.339401 -0.070944 -0.106997 0.016472 
9.316497 7.466308 83.184052 -3.098583 -0.926425 -106.027841 -0.657049 -3.359338 1.612647 -0.284854 -1.492049 0.674447 -0.284854 -1.492049 0.674448 -0.211982 -1.119353 0.505112 0.523797 -20.779310 0.426300 1.078055 -2.410163 0.929754 4.725796 24.610657 0.379930 6.541358 8.306197 25.233251 -30.908730 -45.844411 55.411081 26.645321 -20.006037 -19.632776 -2.523979 15.326594 -4.675283 -11.883535 7.287899 -26.003005 6.900518 -39.921875 -21.856488 -25.218979 -53.132960 35.110485 -0.612986 -3.498365 -1.329674 1.423604 -2.985210 -10.656786 -0.611898 2.568135 1.694256 -0.124743 -0.065432 -0.008375 -0.883110 -4.890394 2.140044 0.634209 -0.200225 -0.195361 -1.245897 1.794275 -0.327625 -0.072779 -0.108293 0.016973 
9.245878 7.469330 83.185722 -3.090411 -0.922741 -106.101777 -0.628728 -3.425963 1.607220 -0.272637 -1.523028 0.671918 -0.272637 -1.523027 0.671920 -0.202791 -1.142573 0.503228 0.463103 -20.743059 0.451555 0.975595 -2.342421 0.958027 4.710555 24.920155 0.805863 6.692710 5.926734 24.886426 -31.443776 -47.124480 54.593589 26.779056 -20.069027 -19.951478 -2.184107 14.630598 -4.616171 -12.481588 5.368416 -26.128631 6.311707 -39.497297 -19.559493 -28.461583 -51.805971 38.093905 -0.605289 -3.438486 -1.261020 1.416988 -2.968840 -10.701265 -0.580668 2.514980 1.732354 -0.139646 -0.063547 -0.008045 -0.881919 -4.851227 2.176505 0.640549 -0.176248 -0.200449 -1.238945 1.746224 -0.296233 -0.072434 -0.100382 0.018027 
9.180089 7.468082 83.186562 -3.104073 -0.917597 -106.171609 -0.634655 -3.483976 1.592141 -0.276725 -1.549542 0.667580 -0.276725 -1.549542 0.667580 -0.205838 -1.162462 0.499951 0.442602 -20.720332 0.475422 0.945638 -2.300246 0.995544 4.651338 25.257425 1.180129 7.124939 3.451798 24.519121 -31.828692 -48.353972 53.570021 26.831618 -20.163176 -20.301706 -1.801259 13.708506 -4.391334 -13.145879 3.851878 -26.402462 5.937780 -39.337539 -17.509496 -30.938708 -50.420491 40.444832 -0.594167 -3.414467 -1.243052 1.387409 -2.922208 -10.707740 -0.545689 2.453560 1.784645 -0.148207 -0.069460 -0.006525 -0.882287 -4.828349 2.181602 0.640152 -0.169557 -0.200485 -1.227764 1.708999 -0.245061 -0.073968 -0.091344 0.017834 
9.115516 7.464400 83.184891 -3.108711 -0.910777 -106.230055 -0.654337 -3.540719 1.576557 -0.285860 -1.574398 0.664195 -0.285860 -1.574398 0.664195 -0.212671 -1.181111 0.497378 0.443797 -20.697468 0.484595 0.950762 -2.257918 1.012789 4.429086 26.061801 1.290047 7.828212 0.829439 24.251813 -32.402168 -49.934055 52.945475 26.792339 -20.334687 -20.677409 -1.827677 12.833274 -4.811522 -13.582857 2.678786 -26.167063 5.601697 -39.330603 -15.442889 -32.454798 -49.406928 41.968927 -0.577768 -3.396280 -1.270895 1.354289 -2.857770 -10.685731 -0.518439 2.394063 1.852439 -0.150359 -0.079614 -0.006992 -0.882112 -4.796673 2.162347 0.644309 -0.163453 -0.188734 -1.214780 1.679663 -0.192600 -0.079321 -0.089769 0.017029 
9.050818 7.462008 83.182114 -3.098124 -0.904264 -106.281425 -0.662142 -3.592229 1.564310 -0.288902 -1.597290 0.660878 -0.288902 -1.597290 0.660879 -0.214935 -1.198282 0.494872 0.432999 -20.679187 0.482577 0.930716 -2.223816 1.006092 3.932259 26.574647 1.020938 8.694317 -1.351567 24.236395 -32.950861 -51.623550 52.510911 26.760753 -20.553168 -21.013704 -2.136189 12.232526 -5.496605 -13.976959 1.383827 -25.718502 5.286910 -39.425064 -13.359759 -33.627265 -48.893428 43.175204 -0.563799 -3.347390 -1.276604 1.340489 -2.824529 -10.687558 -0.504481 2.349273 1.889256 -0.148055 -0.087017 -0.010158 -0.873425 -4.751419 2.141291 0.638827 -0.153881 -0.177243 -1.190701 1.650194 -0.148284 -0.087481 -0.091098 0.017861 
8.986165 7.466120 83.179924 -3.078286 -0.899898 -106.324120 -0.671472 -3.620629 1.584613 -0.291895 -1.610686 0.669921 -0.291894 -1.610686 0.669921 -0.217141 -1.208336 0.501638 0.422208 -20.680810 0.458168 0.903825 -2.226400 0.958497 3.471846 26.362669 0.912589 9.560370 -2.969118 24.096337 -33.034066 -53.036484 51.567324 26.657385 -20.788422 -21.327003 -2.319539 11.825994 -5.806166 -14.532061 -0.357093 -25.588433 4.988910 -39.359778 -11.349646 -34.577573 -48.491331 44.196491 -0.553700 -3.278782 -1.247456 1.331112 -2.816441 -10.705513 -0.487749 2.310983 1.921284 -0.142598 -0.088234 -0.013044 -0.870645 -4.697614 2.133017 0.646343 -0.139932 -0.198205 -1.164044 1.618446 -0.092993 -0.097060 -0.093848 0.018565 
8.925237 7.475274 83.178307 -3.069549 -0.895951 -106.349638 -0.680026 -3.640450 1.589930 -0.295956 -1.619710 0.673495 -0.295956 -1.619710 0.673494 -0.220168 -1.215111 0.504301 0.402548 -20.698854 0.442512 0.863266 -2.259515 0.924028 3.076893 25.505523 1.046198 10.538932 -4.043092 23.791842 -32.862929 -54.238785 50.278761 26.522471 -20.996435 -21.659377 -2.439800 11.624465 -6.037727 -15.015681 -2.666600 -25.303708 4.702747 -38.875132 -9.496815 -35.176420 -47.963484 44.857769 -0.544811 -3.227593 -1.225492 1.318611 -2.799982 -10.708600 -0.473312 2.271146 1.918054 -0.134981 -0.090154 -0.014595 -0.877842 -4.650663 2.120863 0.661685 -0.132324 -0.237729 -1.131910 1.588913 -0.030010 -0.108139 -0.095222 0.019147 
8.867865 7.480485 83.177307 -3.071840 -0.886897 -106.349167 -0.708949 -3.654986 1.599683 -0.309083 -1.626479 0.679993 -0.309083 -1.626480 0.679994 -0.229986 -1.220206 0.509139 0.402774 -20.729228 0.417089 0.855856 -2.315650 0.877616 2.700606 24.795953 0.991555 11.621289 -5.331830 23.575979 -32.710794 -55.403366 48.975742 26.449223 -21.201431 -21.958266 -2.645477 11.295500 -6.486161 -15.424630 -4.852113 -24.835200 4.408112 -38.241420 -7.650935 -35.573927 -47.459023 45.203582 -0.543198 -3.197924 -1.230278 1.305400 -2.764144 -10.698853 -0.465031 2.209839 1.908398 -0.124482 -0.078379 -0.014176 -0.884205 -4.615204 2.111117 0.670059 -0.125811 -0.300610 -1.099171 1.554224 0.028661 -0.117336 -0.087419 0.020364 
